{
  "accessors": [
    {
      "bufferView": 2,
      "componentType": 5126,
      "count": 11954,
      "max": [
        1.1394939422607422,
        3.6750330924987793,
        0.7592604756355286
      ],
      "min": [
        -1.8374953269958496,
        0.001309037208557129,
        -1.2378915548324585
      ],
      "type": "VEC3"
    },
    {
      "bufferView": 2,
      "byteOffset": 143448,
      "componentType": 5126,
      "count": 11954,
      "max": [
        1.0,
        0.9997556805610657,
        1.0
      ],
      "min": [
        -1.0,
        -0.9962546229362488,
        -1.0
      ],
      "type": "VEC3"
    },
    {
      "bufferView": 1,
      "componentType": 5126,
      "count": 11954,
      "max": [
        1.90329909324646,
        1.2945165634155273
      ],
      "min": [
        0.008658135309815407,
        0.008864045143127441
      ],
      "type": "VEC2"
    },
    {
      "bufferView": 1,
      "byteOffset": 95632,
      "componentType": 5126,
      "count": 11954,
      "max": [
        1.90329909324646,
        1.2945165634155273
      ],
      "min": [
        0.008658135309815407,
        0.008864045143127441
      ],
      "type": "VEC2"
    },
    {
      "bufferView": 1,
      "byteOffset": 191264,
      "componentType": 5126,
      "count": 11954,
      "max": [
        1.90329909324646,
        1.2945165634155273
      ],
      "min": [
        0.008658135309815407,
        0.008864045143127441
      ],
      "type": "VEC2"
    },
    {
      "bufferView": 0,
      "componentType": 5125,
      "count": 61329,
      "type": "SCALAR"
    }
  ],
  "asset": {
    "extras": {
      "author": "stdwork99 (https://sketchfab.com/stdwork99)",
      "license": "CC-BY-NC-4.0 (http://creativecommons.org/licenses/by-nc/4.0/)",
      "source": "https://sketchfab.com/3d-models/flower-814a63b04ee742c1aedf2bb00dbd3da7",
      "title": "Flower"
    },
    "generator": "Sketchfab-15.37.0",
    "version": "2.0"
  },
  "bufferViews": [
    {
      "buffer": 0,
      "byteLength": 245316,
      "name": "floatBufferViews",
      "target": 34963
    },
    {
      "buffer": 0,
      "byteLength": 286896,
      "byteOffset": 245316,
      "byteStride": 8,
      "name": "floatBufferViews",
      "target": 34962
    },
    {
      "buffer": 0,
      "byteLength": 286896,
      "byteOffset": 532212,
      "byteStride": 12,
      "name": "floatBufferViews",
      "target": 34962
    }
  ],
  "buffers": [
    {
      "byteLength": 819108,
      "uri": "scene.bin"
    }
  ],
  "extensionsRequired": [
    "KHR_materials_pbrSpecularGlossiness"
  ],
  "extensionsUsed": [
    "KHR_materials_pbrSpecularGlossiness"
  ],
  "images": [
    {
      "uri": "textures/material_diffuse.png"
    },
    {
      "uri": "textures/material_specularGlossiness.png"
    }
  ],
  "materials": [
    {
      "doubleSided": true,
      "extensions": {
        "KHR_materials_pbrSpecularGlossiness": {
          "diffuseFactor": [
            1.0,
            1.0,
            1.0,
            1.0
          ],
          "diffuseTexture": {
            "index": 0
          },
          "glossinessFactor": 1.0,
          "specularFactor": [
            1.0,
            1.0,
            1.0
          ],
          "specularGlossinessTexture": {
            "index": 1,
            "texCoord": 1
          }
        }
      },
      "name": "material"
    }
  ],
  "meshes": [
    {
      "name": "Object_0",
      "primitives": [
        {
          "attributes": {
            "NORMAL": 1,
            "POSITION": 0,
            "TEXCOORD_0": 2,
            "TEXCOORD_1": 3,
            "TEXCOORD_2": 4
          },
          "indices": 5,
          "material": 0,
          "mode": 4
        }
      ]
    }
  ],
  "nodes": [
    {
      "children": [
        1
      ],
      "matrix": [
        1.0,
        0.0,
        0.0,
        0.0,
        0.0,
        2.220446049250313e-16,
        -1.0,
        0.0,
        0.0,
        1.0,
        2.220446049250313e-16,
        0.0,
        0.0,
        0.0,
        0.0,
        1.0
      ],
      "name": "Sketchfab_model"
    },
    {
      "children": [
        2
      ],
      "name": "root"
    },
    {
      "children": [
        3
      ],
      "matrix": [
        1.0,
        0.0,
        0.0,
        0.0,
        0.0,
        2.220446049250313e-16,
        1.0,
        0.0,
        0.0,
        -1.0,
        2.220446049250313e-16,
        0.0,
        0.0,
        0.0,
        0.0,
        1.0
      ],
      "name": "GLTF_SceneRootNode"
    },
    {
      "children": [
        4
      ],
      "name": "root_0"
    },
    {
      "children": [
        5
      ],
      "matrix": [
        0.13936813175678253,
        0.0,
        0.0,
        0.0,
        0.0,
        0.13936813175678253,
        0.0,
        0.0,
        0.0,
        0.0,
        0.13936813175678253,
        0.0,
        0.04863951727747917,
        -0.25618240237236023,
        0.28935298323631287,
        1.0
      ],
      "name": "node_id30_1"
    },
    {
      "mesh": 0,
      "name": "Object_5"
    }
  ],
  "samplers": [
    {
      "magFilter": 9729,
      "minFilter": 9987,
      "wrapS": 10497,
      "wrapT": 10497
    }
  ],
  "scene": 0,
  "scenes": [
    {
      "name": "Sketchfab_Scene",
      "nodes": [
        0
      ]
    }
  ],
  "textures": [
    {
      "sampler": 0,
      "source": 0
    },
    {
      "sampler": 0,
      "source": 1
    }
  ]
}
